PathFileType	4	(X/Y/Z)	C:/Users/beibeiliu/ov580/test_trc/User3\sequence.34_training_dense_right.trc
DataRate	CameraRate	NumFrames	NumMarkers	Units	OrigDataRate	OrigDataStartFrame	OrigNumFrames
120	120	20	19	mm	120	1	250
Frame#	Time	ThumbCMC			ThumbMCP			ThumbIP			ThumbTip			IndexMCP			IndexPIP			IndexTip			MiddleMCP			MiddlePIP			MiddleTip			RingMCP			RingPIP			RingTip			PinkyMCP			PinkyPIP			PinkyTip			BackHand1			BackHand2			BackHand3	
		X0	Y0	Z0	X1	Y1	Z1	X2	Y2	Z2	X3	Y3	Z3	X4	Y4	Z4	X5	Y5	Z5	X6	Y6	Z6	X7	Y7	Z7	X8	Y8	Z8	X9	Y9	Z9	X10	Y10	Z10	X11	Y11	Z11	X12	Y12	Z12	X13	Y13	Z13	X14	Y14	Z14	X15	Y15	Z15	X16	Y16	Z16	X17	Y17	Z17	X18	Y18	Z18	
0	0	175.954	-47.9257	26.5685	195.074	-32.8781	2.53669	199.655	-19.2585	-24.7299	199.183	-7.95673	-44.2616	155.658	-53.4323	-51.3636	152.956	-39.911	-79.6267	152.239	-25.8924	-98.6001	129.113	-63.7974	-53.8244	126.089	-51.5941	-80.6922	113.812	-32.3982	-106.068	111.549	-65.1982	-43.3195	101.986	-57.8962	-67.7645	88.26	-43.879	-89.7211	91.7325	-64.9763	-23.7174	75.6903	-60.4488	-39.8179	60.0938	-53.9753	-53.8514	126.174	-82.1533	4.61838	132.203	-88.7938	34.8453	159.718	-75.563	15.6621	
1	0.00833333	177.493	-46.5774	21.1496	190.703	-33.1692	3.64651	197.677	-19.3997	-26.2271	202.253	-6.07197	-42.5942	155.296	-52.1622	-51.4788	155.111	-39.7411	-80.0681	146.819	-24.5044	-100.822	132.763	-61.9413	-53.6302	125.423	-48.9924	-84.2567	113.683	-31.5088	-108.119	113.679	-64.2674	-46.3148	99.1604	-59.7084	-64.3582	90.1229	-43.7873	-89.9113	92.7613	-64.4322	-23.4865	75.2024	-60.4966	-40.9422	62.5562	-51.9629	-58.4181	126.714	-81.2847	4.32895	131.981	-87.5735	34.1622	160.432	-75.562	11.928	
2	0.0166667	178.955	-46.3491	25.8222	189.463	-32.7979	0.674322	199.133	-19.111	-25.9788	199.518	-8.04654	-44.4092	154.555	-52.0212	-52.3259	156.143	-40.5037	-76.9825	146.89	-26.7358	-98.7455	131.216	-60.5686	-58.8512	125.486	-48.8857	-84.0756	112.522	-30.7893	-109.184	111.117	-65.2674	-44.6931	102.858	-58.6629	-65.5097	89.5149	-44.114	-88.6003	92.2344	-65.6595	-25.2622	76.0707	-60.3084	-38.6009	63.2997	-54.3084	-55.0715	125.679	-81.6786	2.97076	128.845	-89.0644	31.4096	158.848	-76.7252	13.2193	
3	0.025	179.56	-45.9134	22.3811	192.285	-32.3347	2.57432	198.222	-19.4281	-27.7632	201.374	-6.53684	-45.8358	156.886	-51.5745	-51.2415	154.636	-38.2766	-80.7597	145.38	-26.3619	-100.315	127.844	-62.3269	-56.5632	121.184	-49.5084	-84.4323	110.609	-32.1294	-107.194	112.327	-65.4889	-47.0951	100.205	-58.3397	-69.3127	90.2051	-43.5538	-89.6482	92.6539	-65.5674	-24.3488	77.9177	-60.83	-37.6892	59.908	-53.3868	-57.7248	128.842	-82.3343	1.86751	130.075	-86.7436	33.8673	161.336	-74.0688	9.05746	
4	0.0333333	180.301	-45.7765	20.9682	190.739	-32.3667	1.67292	198.951	-19.3658	-26.244	200.468	-6.62751	-46.3943	154.556	-51.3067	-54.714	155.857	-39.96	-78.2977	145.495	-26.666	-99.455	132.727	-61.4106	-54.0286	122.893	-48.3065	-84.3191	114.185	-32.9684	-107.156	113.164	-64.1675	-41.9879	102.194	-56.5706	-70.0045	89.1829	-43.6968	-91.28	91.8346	-64.8339	-21.0084	75.1427	-60.5076	-41.5997	59.5033	-52.0922	-57.4055	128.161	-81.3156	5.44462	127.704	-88.8027	34.0693	156.644	-75.5034	13.7138	
5	0.0416667	179.016	-44.9792	20.525	188.666	-32.5125	1.70665	197.445	-19.4736	-21.4235	200.507	-7.60181	-42.4663	157.247	-49.1931	-52.8482	151.435	-39.4691	-79.313	151.104	-23.1235	-102.318	130.106	-61.7034	-53.462	121.851	-51.256	-81.014	115.311	-33.7737	-105.821	113.105	-63.479	-45.3283	100.223	-58.9478	-66.2693	92.2599	-44.9144	-87.9068	88.9807	-64.9341	-23.3363	78.0209	-60.8014	-38.8991	57.2257	-53.4102	-57.9066	123.01	-81.0164	3.85384	128.953	-85.947	31.381	155.859	-74.4218	10.1637	
6	0.05	176.818	-44.2545	21.7987	192.859	-31.7597	2.81639	202.38	-18.3029	-24.5024	205.206	-5.71334	-41.8825	156.285	-48.6712	-52.9304	156.843	-36.6913	-79.8839	147.318	-25.146	-100.808	132.886	-60.2114	-55.1732	124.508	-49.5397	-81.4561	114.633	-32.4265	-107.493	109.684	-64.4542	-44.4526	99.549	-58.5311	-66.1419	89.4621	-46.405	-87.7712	92.6537	-63.3382	-21.9712	73.4146	-59.2692	-38.9776	57.3636	-51.8415	-57.991	127.446	-80.4282	5.76916	131.591	-84.3922	33.2299	158.055	-72.3164	10.6327	
7	0.0583333	178.708	-43.8384	25.3893	192.585	-31.5396	2.03664	201.89	-18.5066	-23.5811	206.42	-6.52948	-43.8536	158.574	-48.1335	-54.1188	153.598	-36.1076	-81.3764	149.569	-22.943	-103.84	130.308	-59.2495	-56.8396	123.941	-48.4279	-83.2909	111.009	-31.341	-111.031	108.786	-63.1128	-45.2938	98.3582	-57.8904	-67.5804	92.5855	-46.265	-89.4253	92.926	-62.7801	-21.1833	77.8699	-59.1402	-37.838	58.1102	-54.0901	-56.0941	127.358	-80.0909	0.648628	131.315	-85.0369	34.3429	160.967	-72.3604	12.5115	
8	0.0666667	175.708	-43.5084	19.6668	192.863	-30.5215	1.65063	200.473	-18.2838	-22.4074	207.143	-5.42999	-41.5621	156.313	-47.2662	-55.8122	156.094	-36.8397	-81.4098	150.284	-25.6449	-101.093	130.163	-59.4274	-56.4914	122.691	-47.487	-86.057	116.155	-33.5637	-107.998	112.993	-62.3511	-43.157	102.285	-56.9369	-66.5322	89.918	-45.1641	-92.5889	90.8635	-62.1487	-23.0573	77.1211	-57.1337	-41.1888	57.9656	-52.5336	-53.2647	123.258	-80.2357	1.91756	127.127	-84.153	30.8235	157.136	-71.7763	12.9	
9	0.075	178.771	-43.3876	23.1975	193.044	-28.9848	0.328085	202.438	-17.0915	-23.0581	208.715	-4.96202	-43.6271	154.691	-47.8411	-56.5622	158.451	-36.6076	-79.122	151.115	-22.9817	-104.365	132.835	-57.8268	-60.5808	123.564	-47.3791	-87.1663	117.53	-33.8922	-110.864	111.788	-61.1115	-44.1675	103.295	-55.3787	-67.8578	92.2025	-44.3711	-92.4959	88.4889	-60.7598	-23.254	75.9053	-56.3857	-40.984	61.1144	-52.4736	-58.0189	127.24	-75.1296	2.77315	126.291	-81.9481	28.6169	155.581	-73.0833	12.3716	
10	0.0833333	175.833	-43.0513	19.2943	195.102	-28.6764	-2.48183	205.093	-14.3349	-25.2584	208.09	-2.79834	-45.0623	157.211	-46.436	-53.9258	157.872	-33.9294	-83.5825	149.787	-25.3	-103.409	130.123	-56.5623	-59.8979	122.293	-49.2065	-84.4389	115.142	-33.4342	-111.604	109.18	-59.7466	-48.1887	101.527	-54.8887	-69.1931	91.4933	-44.2015	-93.1461	87.6611	-58.7655	-23.7798	75.9441	-55.2223	-41.7885	58.3784	-50.7936	-61.1492	126.926	-74.4392	3.31635	128.314	-82.4325	30.9017	155.562	-69.3304	11.8194	
11	0.0916667	177.224	-40.8634	22.8728	189.6	-28.3585	-0.887714	203.044	-13.435	-28.9372	210.255	-1.12856	-46.826	158.046	-43.7023	-56.9309	155.784	-34.3306	-83.6043	151.328	-22.0011	-106.435	133.008	-55.2119	-57.7954	123.31	-47.5794	-86.8053	118.186	-33.2058	-113.957	110.021	-59.2348	-48.1091	100.294	-54.3621	-69.1584	91.4701	-42.7331	-95.5958	90.5096	-57.7171	-29.4757	73.3549	-54.9549	-44.3224	57.1902	-50.3694	-59.168	123.759	-73.7764	-2.11345	128.203	-80.1161	28.642	158.48	-66.6218	6.48265	
12	0.1	179.245	-38.962	20.8349	189.959	-25.8417	-1.91262	201.594	-11.8629	-24.0043	208.935	-0.340374	-42.9021	158.791	-42.6111	-59.8746	155.514	-32.9175	-83.6853	155.276	-21.7175	-103.315	132.547	-54.1915	-63.2927	120.908	-45.8313	-88.8102	115.163	-33.1853	-113.926	110.912	-58.2355	-49.941	98.0911	-54.1911	-72.384	92.8659	-44.2562	-96.5778	88.4982	-58.537	-28.1648	75.6893	-54.7153	-44.0957	59.7542	-50.7614	-60.7639	126.599	-74.5035	-1.94235	128.48	-78.4071	27.3687	159.53	-68.039	9.10944	
13	0.108333	174.291	-36.985	17.6701	189.126	-21.3047	-2.85825	198.819	-8.80466	-25.9322	207.072	4.39709	-41.235	155.055	-41.9629	-57.0321	154.475	-32.2017	-83.7757	152.708	-19.1385	-108.757	128.941	-55.8386	-58.4917	122.643	-47.5785	-85.7631	113.613	-33.7622	-116.649	108.132	-59.1129	-50.3769	104.098	-53.6253	-71.6843	91.4316	-47.2518	-93.0096	88.8474	-59.1772	-24.4117	72.8816	-55.7026	-44.0472	61.6313	-53.1658	-58.7424	127.794	-73.0216	0.897601	129.113	-78.3199	25.9074	160.652	-66.235	8.71878	
14	0.116667	175.605	-32.8096	17.6082	190.865	-16.0008	-0.555517	197.417	-2.68518	-25.4419	205.368	10.9726	-45.9825	157.704	-38.8646	-60.8172	153.62	-28.4488	-85.6963	153.24	-17.0161	-106.133	133.621	-52.5082	-60.9974	123.448	-47.3075	-85.274	115.592	-33.3906	-116.07	109.132	-59.7725	-48.7566	101.183	-55.7271	-74.4931	91.53	-47.0023	-98.001	90.8845	-59.63	-25.5591	73.5137	-59.9812	-39.8109	57.9796	-56.4546	-60.7206	125.822	-73.0466	-0.179721	133.251	-77.6831	27.3389	159.38	-61.9606	5.5007	
15	0.125	176.099	-28.6736	17.2703	185.831	-11.2815	-1.22339	195.002	4.12104	-24.066	198.916	17.139	-41.5881	157.963	-35.681	-59.5118	155.345	-23.841	-85.491	152.606	-13.1044	-106.355	132.601	-51.0857	-62.8846	126.666	-42.8843	-89.7138	118.243	-32.6695	-115.192	114.414	-58.2713	-50.9153	101.22	-58.7104	-69.7856	90.517	-50.3138	-96.3027	91.0786	-61.9593	-26.3263	74.9613	-61.5156	-41.0951	59.9289	-60.0674	-59.8961	127.211	-74.2117	0.745677	131.558	-78.8757	25.647	160.364	-59.5036	9.15678	
16	0.133333	170.406	-24.1169	18.8781	182.872	-4.0491	-1.64336	187.317	10.853	-27.1978	192.667	26.1651	-43.1089	156.905	-31.0419	-59.9562	155.42	-19.3139	-83.8747	146.209	-9.65165	-107.861	135.392	-49.2977	-59.9597	127.406	-41.5245	-86.8646	113.636	-33.3285	-113.228	116.238	-57.5522	-46.5698	103.992	-56.168	-73.4804	92.9796	-49.9184	-98.0782	93.5566	-63.6256	-24.5283	76.7914	-62.8148	-45.2	61.4796	-63.1824	-62.2611	131.862	-72.0598	0.653214	135.583	-77.6447	28.7901	160.567	-55.6897	10.2694	
17	0.141667	170.54	-16.4785	17.2997	174.137	2.89604	-4.33943	181.848	21.4347	-23.1123	183.851	34.7978	-39.2944	153.996	-27.198	-60.3452	150.861	-16.2371	-84.4412	143.69	-5.35263	-105.143	133.291	-47.1775	-62.7294	124.973	-40.179	-90.0938	116.068	-29.3273	-116.438	118.53	-56.0978	-50.9008	103.679	-56.5729	-75.4464	96.1033	-49.6179	-96.8436	96.4272	-64.9783	-30.2954	79.1155	-66.8825	-46.2681	63.1106	-71.3106	-59.4909	134.247	-70.4182	-0.471663	140.008	-74.7939	29.6306	164.315	-48.4724	9.24426	
18	0.15	169.396	-9.12805	21.8552	170.138	10.2001	-3.10383	174.402	29.925	-21.4889	175.667	44.5648	-39.6223	155.419	-20.0674	-57.0773	150.182	-11.8464	-81.5923	139.235	-2.15722	-107.315	137.242	-42.755	-63.9378	126.598	-39.644	-86.0884	111.647	-30.8215	-116.199	117.447	-57.6073	-46.9737	109.37	-56.2928	-71.641	96.5629	-50.4276	-97.6564	100.231	-65.0465	-27.3379	83.2988	-68.8993	-47.8472	68.4371	-72.8116	-59.2281	139.509	-64.1634	-2.92227	143.062	-67.3856	27.0758	163.311	-45.4527	8.64635	
19	0.158333	164.149	-3.69501	19.5217	161.439	14.2152	-3.05892	162.229	33.2553	-20.6469	162.737	50.5731	-38.4039	152.152	-15.9091	-54.2276	147.325	-6.39647	-81.6526	139.141	3.86105	-103.127	134.775	-43.325	-62.6743	126.38	-37.0697	-88.4688	112.713	-28.2658	-117.283	120.064	-56.1728	-51.8931	113.004	-54.3739	-74.7994	97.9428	-51.1689	-100.266	104.077	-64.4749	-28.1687	88.5821	-71.4227	-45.7711	75.3882	-75.9888	-66.7117	142	-61.217	-5.00514	145.233	-67.183	24.0808	163.391	-40.8927	10.9495	
